PathFileType	4	(X/Y/Z)	/home/abdul/Desktop/myosuite/custom_workspace/IK/output/S3_12_3.trc
DataRate	CameraRate	NumFrames	NumMarkers	Units	OrigDataRate	OrigDataStartFrame	OrigNumFrames
200.0	200.0	56	3	mm	200.0	1	1113
Frame#	Time	V_Shoulder			V_Elbow			V_Wrist		
		X1	Y1	Z1	X2	Y2	Z2	X3	Y3	Z3

1	0.0	-137.5717766814979	655.9085896892284	298.2037452362386	-336.37021459894623	532.0649004060933	6.940960109581143	-287.17237120582445	237.7009313594168	31.257349688018422
2	0.005	-137.55721149743852	655.9251830990679	298.248077102744	-336.42257840182964	532.0931472716966	6.991483736554793	-287.34167301579396	237.67258771095538	31.18138016927008
3	0.01	-137.5430526494895	655.9416183406282	298.2928632103862	-336.48090736705166	532.126714780163	7.043859567354291	-287.5123443749741	237.6483123087687	31.106903710873464
4	0.015	-137.52935743804207	655.9578556188407	298.3380405002701	-336.54532463228924	532.1657298573973	7.098023769314432	-287.683690955622	237.6284666907859	31.034316127076735
5	0.02	-137.51618384897424	655.9738545663188	298.38354430981997	-336.6159388197868	532.2103038964332	7.153905113996698	-287.85497430426386	237.61341673938153	30.964027876675072
6	0.025	-137.50359039756782	655.9895743161964	298.42930855044796	-336.692843102519	532.2605315641442	7.211425036670198	-288.02541212081906	237.60353167932973	30.89646334926647
7	0.03	-137.49163596719566	656.0049735735057	298.4752658921617	-336.7761142969604	532.3164896172659	7.270497734199678	-288.19417869819875	237.5991830252595	30.83206007261014
8	0.035	-137.4803796432624	656.0200106845729	298.5213479545456	-336.8658119873734	532.3782357327276	7.331030302788077	-288.36040552695533	237.60074348074278	30.77126784100088
9	0.04	-137.46988054289966	656.0346437039152	298.5674855035268	-336.9619776865104	532.4458073574342	7.392922916826537	-288.52318206897934	237.60858579144366	30.714547764961182
10	0.045	-137.4601976409316	656.048830458158	298.61360865332534	-337.06463403757505	532.5192205827616	7.456069049888361	-288.6815567036127	237.62308155505832	30.662371242962507
11	0.05	-137.45138959264006	656.0625286065087	298.65964707296877	-337.1737840622111	532.5984690491331	7.520355738667339	-288.834537848869	237.64459999107592	30.61521885631432
12	0.055	-137.443514553868	656.0756956973527	298.7055301967403	-337.28941045918134	532.6835228861355	7.585663890407028	-288.9810952597335	237.6735066736914	30.573579188802498
13	0.06	-137.436629999011	656.088289220571	298.7511874379142	-337.41147495826834	532.7743276936967	7.651868634098241	-289.1201615047592	237.71016223150025	30.537947573113694
14	0.065	-137.43079253745165	656.1002666552174	298.7965484051235	-337.53991773376845	532.8708035698958	7.718839715439389	-289.2506336213809	237.75492101789808	30.508824766546933
15	0.07	-137.4260577289989	656.111585512224	298.8415431206932	-337.6746568817686	532.9728441910016	7.78644193526023	-289.3713749495446	237.8081297563973	30.486715558984287
16	0.075	-137.42247989889688	656.1222033718514	298.88610224026405	-337.8155879651888	533.0803159493364	7.8545356308067635	-289.48121714239966	237.87012616535208	30.472127316566386
17	0.08	-137.42011195297042	656.1320779156359	298.93015727302475	-337.96258363034076	533.1930571545416	7.922977198974943	-289.57896235192607	237.94123756685292	30.465568464991705
18	0.085	-137.41900519347618	656.1411669526359	298.97364080186225	-338.1154932985032	533.3108773037739	7.991619660266595	-289.66338558647846	238.02177948481	30.46754691682832
19	0.09	-137.41920913622576	656.1494284398168	299.0164867027384	-338.27414293573986	533.4335564262893	8.060313261923989	-289.7332372363241	238.1120542374864	30.478568447688865
20	0.095	-137.4207713295469	656.1568204964695	299.0586303625941	-338.43833490389284	533.5608445077748	8.12890611838255	-289.7872457623409	238.21234952997108	30.49913502657084
21	0.1	-137.42373717564467	656.163301412597	299.10000889508024	-338.607847895374	533.6924609996579	8.197244886866349	-289.82412054212875	238.3229370522867	30.529743106100934
22	0.105	-137.42814975491888	656.1688296512538	299.14056135341684	-338.78243695404404	533.8280944184723	8.265175475640516	-289.8425548668756	238.44407108901692	30.570881878840474
23	0.11	-137.43404965379014	656.1733638448708	299.1802289396779	-338.9618335841253	533.9674020401783	8.332543782130967	-289.8412290814225	238.57598714649905	30.62303150620549
24	0.115	-137.44147479657656	656.1768627856472	299.2189552098055	-339.1457459487306	534.1100096941149	8.39919645782666	-289.8188138590844	238.71890060376802	30.686661326925204
25	0.12	-137.4504602819573	656.1792854101326	299.25668627365803	-339.333859159215	534.2555116610265	8.464981696595752	-289.7739736019223	238.8730053935483	30.76222805230401
26	0.125	-137.46103822454612	656.1805907781766	299.2933709894051	-339.5258356561686	534.4034706793311	8.529750042776088	-289.70536995632517	239.0384727196718	30.85017395586012
27	0.13	-137.4732376020892	656.1807380464652	299.32896115158525	-339.7213156824654	534.5534180634904	8.593355215144891	-289.6116654329576	239.2154498173506	30.950925065185324
28	0.135	-137.48708410878746	656.1796864369084	299.3634116721575	-339.9199178483724	534.7048539380133	8.655654942633975	-289.49152711936745	239.40405876275025	31.06488936410205
29	0.14	-137.50260001522958	656.1773952001868	299.39668075388323	-340.12123978830175	534.857247590254	8.71651180743777	-289.34363047283017	239.6043953382929	31.19245501338201
30	0.145	-137.5198040354072	656.1738235748115	299.42873005539127	-340.32485890835665	535.010037944771	8.775794090962888	-289.16666318033936	239.81652796006586	31.333988598432903
31	0.15	-137.53871120126647	656.1689307420833	299.4595248472938	-340.53033322338666	535.1626341615865	8.833376617892368	-288.95932907204656	240.04049667361983	31.489833412452924
32	0.155	-137.55933274523258	656.1626757773863	299.4890341587375	-340.73720228182276	535.3144163602278	8.889141593486174	-288.7203520739038	240.2763122243133	31.660307783594185
33	0.16	-137.5816759911236	656.1550175982793	299.51723091379495	-340.9449881761153	535.4647364709433	8.942979429113533	-288.4484801847853	240.52395520819118	31.84570345466466
34	0.165	-137.60574425385042	656.1459149098843	299.54409205712136	-341.1531966361428	535.6129192139686	8.994789550913511	-288.1424894629548	240.7833753091779	32.0462840238307
35	0.17	-137.63153674827697	656.1353261481069	299.5695986683295	-341.36131820250563	535.7582632071744	9.044481186408936	-287.8011880064154	241.05449062811937	32.26228345465834
36	0.175	-137.65904850759185	656.1232094212477	299.5937360645584	-341.56882947616015	535.9000422018509	9.091974123856149	-287.42341991142314	241.3371871089206	32.49390466364983
37	0.18	-137.68827031151747	656.1095224505881	299.6164938907432	-341.775194440388	536.037506445783	9.137199439099996	-287.00806919328	241.6313180667009	32.741318193192036
38	0.185	-137.71918862465802	656.0942225105645	299.63786619712414	-341.9798658506362	536.1698841721488	9.180100184720127	-286.55406365343316	241.93670382252523	33.00466097753563
39	0.19	-137.7517855452596	656.0772663691533	299.657851503567	-342.18228668730313	536.2963832121125	9.2206320363015	-286.0603786769136	242.2531314488695	33.284035209068186
40	0.195	-137.78603876462907	656.0586102291139	299.6764528503026	-342.38189166608583	536.4161927283216	9.25876389073916	-285.52604094423566	242.58035462954217	33.5795073117331
41	0.2	-137.82192153742815	656.0382096707439	299.6936778347327	-342.5781088000484	536.5284850658159	9.294478411595488	-284.9501320420594	242.91809363731392	33.89110702797927
42	0.205	-137.85940266302933	656.016019596811	299.7095386339898	-342.77036100712917	536.6324177161546	9.327772516670102	-284.3317919571866	243.2660354320085	34.218826625107845
43	0.21	-137.89844647808977	655.9919941803332	299.72405201298085	-342.95806775639636	536.727135389867	9.358657803123837	-283.6702224388166	243.62383388127643	34.562620226313804
44	0.215	-137.9390128604675	655.9660868158717	299.7372393176923	-343.1406467460047	536.8117721916481	9.387160905725137	-282.9646902144314	243.99111010571798	34.92240327110512
45	0.22	-137.9810572445708	655.9382500750079	299.7491264535786	-343.31751560552016	536.8854538920725	9.413323784063438	-282.2145300452052	244.367452949445	35.29805210912549
46	0.225	-138.0245306482	655.9084356666613	299.75974384890657	-343.4880936150747	536.9473002889938	9.437203934899555	-281.4191476074419	244.75241957657158	35.68940373071132
47	0.23	-138.06937971090653	655.8765944028956	299.76912640297877	-343.651803433675	536.9964276512237	9.458874526194233	-280.578022187229	245.14553619351256	36.09625563678563
48	0.235	-138.1155467438599	655.8426761708445	299.77731341921145	-343.80807282893096	537.0319512365669	9.478424449769278	-279.6907091762553	245.5462988963426	36.51836584993614
49	0.24	-138.1629697911801	655.8066299113699	299.78434852309704	-343.95633640047095	537.0529878758043	9.495958290006126	-278.75684235756603	245.95417464183706	36.95545306774666
50	0.245	-138.21158270265778	655.7684036050404	299.79027956513374	-344.0960372893808	537.0586586137797	9.511596206469944	-277.77613597092005	246.36860234017965	37.40719695865791
51	0.25	-138.2613152177503	655.7279442659898	299.79515850886474	-344.22662886612227	537.0480913983473	9.525473728858678	-276.7483865483624	246.7889940666874	37.87323859983052
52	0.255	-138.312093060708	655.685197944183	299.79904130422284	-344.34757638957007	537.0204238075949	9.537741463211118	-275.6734745116226	247.21473638927398	38.353181055676984
53	0.26	-138.36383804665016	655.6401097365841	299.80198774643554	-344.4583586300268	536.9748058054432	9.548564708861287	-274.5513655239954	247.64519180775312	38.84659009492691
54	0.265	-138.41646819837777	655.5926238076767	299.80406132080236	-344.55846944934945	536.9104025154725	9.558122986193233	-273.3821115904418	248.07970030047755	39.352995043297675
55	0.27	-138.46989787367633	655.5426834197493	299.80532903371454	-344.6474193316276	536.8263970026034	9.5666094758261	-272.1658519007623	248.51758097322215	39.87188976806741
56	0.275	-138.52403790282946	655.4902309733064	299.8058612303435	-344.7247368581981	536.7219930521032	9.574230370439112	-270.90281341182896	248.95813380465475	40.40273379009574
